<svg width="196" height="58" viewBox="0 0 196 58" fill="none" xmlns="http://www.w3.org/2000/svg">
<mask id="mask0_30_7638" style="mask-type:luminance" maskUnits="userSpaceOnUse" x="0" y="0" width="196" height="58">
<path d="M0 0H195.995V57.9985H0V0Z" fill="white"/>
</mask>
<g mask="url(#mask0_30_7638)">
<path d="M23.5584 0C22.5554 0 21.5634 0.0689982 20.5955 0.190995C23.3254 0.915977 26.1713 1.95395 28.6503 3.48091C36.621 8.35779 36.0981 13.4007 39.738 14.2666C43.3879 15.1336 42.0049 16.3476 41.6489 21.3965C41.5309 23.1434 38.365 21.5724 37.318 21.5724C36.2711 21.5724 35.0661 23.6574 36.6211 24.7004C38.187 25.7433 41.8269 24.3574 41.1309 27.1393C40.439 29.9152 37.669 33.9251 35.5941 31.1342C33.5141 28.3533 31.5942 28.9643 30.0432 27.6673C26.7583 24.8774 27.7963 23.1434 26.4083 20.8715C25.5383 19.4665 25.4253 18.6685 25.4453 18.2615C25.0993 19.7165 23.9984 25.4444 27.4503 29.2143C31.4362 33.5671 36.804 36.1771 36.626 42.2769C36.621 42.6589 36.6061 43.0219 36.6021 43.3549C39.8463 41.1931 42.5054 38.2624 44.3426 34.8239C46.1797 31.3854 47.1379 27.5459 47.1318 23.6474C47.1248 10.5947 36.5671 0 23.5584 0Z" fill="white"/>
<path d="M16.0016 15.2716C16.0016 15.2716 11.1568 17.7095 6.46988 25.1953C6.46988 25.1953 4.22294 10.9237 20.6835 3.09487C20.6835 3.09487 16.9546 0.494934 9.80379 4.41683C6.76349 6.61239 4.28892 9.49951 2.5843 12.8399C0.879679 16.1803 -0.0061078 19.8782 4.4451e-05 23.6283C-0.0106215 29.1272 1.89847 34.4573 5.39791 38.699C5.30891 37.192 5.25491 35.209 5.42791 33.3681C5.7839 29.7102 6.99787 25.8903 16.0016 15.2716ZM22.2445 26.2333C22.2445 26.2333 20.5155 26.2333 19.6515 32.3231C18.8866 37.661 17.9916 41.3969 13.5717 45.0538C15.4022 45.9174 17.3385 46.536 19.3306 46.8937C21.3255 44.9458 24.0074 41.2439 23.1085 36.148C21.7255 28.3242 22.2445 26.2333 22.2445 26.2333ZM24.9944 47.2427C27.0987 47.1127 29.1756 46.6976 31.1683 46.0088C29.0943 43.9328 26.2794 40.6029 25.5334 37.191L24.9944 47.2427ZM17.7406 22.7574C19.9875 17.8855 20.6835 17.0195 20.6835 17.0195C20.6835 17.0195 15.6506 18.9285 14.6237 26.4053C13.6757 33.2301 11.4188 37.582 6.95387 40.4169C7.94817 41.4005 9.02547 42.2965 10.1738 43.0948C12.3377 41.3329 15.3837 38.503 16.3526 35.8C17.9126 31.4471 15.4876 27.6282 17.7406 22.7624M26.2254 9.88569C26.2254 9.88569 29.0053 9.5327 30.3883 9.5327C31.7712 9.5327 32.2902 10.2327 32.4782 11.2807C32.6402 12.3186 32.2902 14.4096 32.2902 14.4096C32.2902 14.4096 32.4772 11.7996 29.6873 11.1047C27.3173 10.5077 24.8424 10.9287 26.2254 9.89069M56.1546 20.6434C56.1786 21.5834 56.3416 21.8334 56.9096 21.9504C57.2596 22.0344 57.5766 22.0634 57.9516 22.0974L57.9116 22.4064C57.2256 22.4064 56.1546 22.3424 55.1266 22.3424C54.1987 22.3424 52.8697 22.4064 52.5787 22.4064V22.0974C53.0877 22.0344 53.3587 22.0144 53.6507 21.9504C54.2627 21.8334 54.3317 21.4414 54.3767 20.6874C54.4407 19.4834 54.4307 17.4365 54.4307 15.7475C54.4307 14.1906 54.4407 12.4716 54.3767 11.3017C54.3317 10.4987 54.1837 10.3127 53.6647 10.1947C53.4037 10.1267 52.9587 10.1117 52.7117 10.0677V9.7647C53.2497 9.7647 54.1047 9.8227 55.2606 9.8227C56.1396 9.8227 57.1076 9.7647 57.6256 9.7647V10.0677C57.3156 10.1117 56.8256 10.1947 56.6676 10.2297C56.1936 10.3817 56.1786 10.6457 56.1396 11.4637C56.1046 12.3436 56.1046 14.9936 56.1046 15.7375C56.1046 17.4805 56.1046 19.1405 56.1496 20.6434M60.0995 9.7637C60.9055 9.7637 61.4785 9.8237 62.2785 9.8237C63.4784 9.8237 64.0764 9.8037 64.7034 9.7637V10.0677C63.5274 10.2297 63.1334 10.3767 62.1305 11.4247C60.7965 12.8046 59.2405 14.4206 58.1306 15.4486V15.5076C58.5746 16.3055 62.5105 20.4174 63.8144 21.4174C64.1054 21.6474 64.3084 21.7494 64.5504 21.8524C64.9254 22.0144 65.3254 22.0584 66.1804 22.0824L66.1454 22.4064C65.2414 22.4794 63.1324 22.4694 62.6334 22.3034C62.3235 22.2204 61.9915 21.9994 61.5275 21.6234C60.5245 20.7614 57.8336 17.8375 56.6876 16.4335C56.5979 16.3173 56.4857 16.2203 56.3576 16.1485L56.4156 15.9585C57.4536 15.5855 59.5025 13.5346 60.9895 11.7916C61.4145 11.2617 61.6215 10.9147 61.6215 10.6217C61.6215 10.4747 61.5075 10.3567 61.1575 10.2737C60.8805 10.2097 60.6045 10.1217 60.0855 10.0637L60.1055 9.7597L60.1005 9.7647L60.0995 9.7637ZM67.6663 11.5367C68.1013 11.5367 68.7823 11.5907 69.8243 11.5907H73.4642C74.1712 11.5907 75.1091 11.5707 75.4641 11.5267L75.5241 11.5707C75.3511 12.1386 75.2471 13.2306 75.1841 13.8816L74.8571 13.8966C74.8351 13.5128 74.7655 13.1333 74.6501 12.7666C74.5112 12.3886 74.3682 12.1436 73.6622 12.0996C73.1822 12.0606 71.1232 12.0456 70.8122 12.0996L70.6242 12.3496C70.5852 13.1086 70.5653 16.0315 70.5853 16.4275L70.6592 16.5645C71.1392 16.5995 73.0642 16.5795 73.6222 16.5445C74.1902 16.5065 74.3292 16.2465 74.4372 15.9245C74.5112 15.7375 74.5711 15.5226 74.6051 15.3116H74.9461C74.8861 15.6295 74.8131 16.3155 74.8131 16.8935C74.8131 17.5835 74.8531 18.0135 74.8531 18.3615L74.5261 18.3765C74.498 18.1677 74.4535 17.9614 74.3932 17.7595C74.3392 17.5445 74.2452 17.1965 73.6332 17.1425C73.1132 17.1085 71.1832 17.1085 70.6792 17.1285L70.5803 17.2705C70.5603 17.7405 70.5802 20.1204 70.6202 21.1624C70.6402 21.5634 70.8472 21.7404 71.0602 21.7794C71.4342 21.8524 72.1402 21.8874 73.3802 21.8874C74.6201 21.8874 74.7781 21.6914 75.0401 21.4414C75.3661 21.1774 75.7861 20.4914 76.0871 19.8064L76.3631 19.9334C76.2851 20.4184 75.8151 21.8134 75.5931 22.2054C75.4891 22.3764 75.4101 22.3954 74.4771 22.3954C73.3312 22.3954 72.4912 22.3474 69.8343 22.3474C68.6103 22.3474 68.0273 22.3964 67.2223 22.3964V22.1224C67.7153 22.0874 68.1203 22.0624 68.4463 21.9804C68.8863 21.8724 69.0343 21.6564 69.0943 20.9714C69.1143 20.5454 69.1433 18.5235 69.1433 16.5065C69.1433 14.8416 69.1133 13.2066 69.0933 12.8686C69.0543 12.2076 68.9753 12.0506 68.5113 11.9436C68.2262 11.8708 67.935 11.8246 67.6413 11.8056L67.6713 11.5367H67.6663ZM76.9371 11.5367C77.2971 11.5367 78.2211 11.5907 78.882 11.5907C79.307 11.5907 79.564 11.5907 79.742 11.5707C79.786 11.6886 79.974 11.9626 80.462 12.5106C82.4679 14.8176 86.6708 19.5764 87.5058 20.4914L87.5698 20.4614C87.5698 18.1365 87.5998 14.0976 87.4898 12.9466C87.4458 12.4376 87.3328 12.1436 86.8038 11.9726C86.4778 11.8896 86.1079 11.8496 85.6589 11.8016L85.6729 11.5317C86.1729 11.5317 86.9968 11.5857 87.8808 11.5857C88.4588 11.5857 89.4308 11.5317 89.6488 11.5317V11.8016C89.3088 11.8456 89.1448 11.8896 88.9128 11.9386C88.4238 12.0896 88.3058 12.4526 88.2858 12.8926C88.1768 14.2886 88.1868 17.7745 88.1578 20.0904C88.1578 20.8834 88.1778 21.8674 88.1878 22.4354C87.8226 22.4108 87.4561 22.4108 87.0908 22.4354C86.1719 21.1674 80.31 14.4596 79.471 13.4806L79.396 13.4906C79.362 15.2776 79.376 19.8604 79.416 20.8144C79.45 21.6564 79.722 21.8674 80.156 21.9744C80.4886 22.0436 80.8253 22.0914 81.164 22.1174L81.139 22.3914C80.789 22.3914 79.944 22.3424 79.021 22.3424C78.0971 22.3424 77.4551 22.3914 77.0701 22.3914V22.1174C77.4551 22.0834 77.6631 22.0584 77.8951 21.9904C78.3251 21.8824 78.586 21.6864 78.65 20.8244C78.705 19.9974 78.784 16.7655 78.823 13.1236C78.823 12.8876 78.67 12.5106 78.3831 12.2716C77.9831 11.9186 77.5831 11.8846 76.8921 11.7966L76.9321 11.5267L76.9371 11.5367ZM89.9848 11.5367C90.5627 11.5367 91.3627 11.5907 92.3167 11.5907C92.9977 11.5907 93.9117 11.5507 94.1637 11.5367L94.1936 11.8066C94.0157 11.8256 93.7337 11.8946 93.5707 11.9286C93.2897 12.0016 93.2107 12.1436 93.4027 12.5306C93.9117 13.5206 95.5466 16.3545 95.9216 16.9705H96.0006C96.6526 15.9285 97.9856 13.7306 98.4205 12.7406C98.6185 12.2806 98.5145 12.0506 97.9855 11.9436C97.7246 11.8936 97.5616 11.8796 97.1756 11.8056L97.2206 11.5367C97.7096 11.5517 98.5095 11.5907 99.1215 11.5907C99.8675 11.5907 100.326 11.5507 101.018 11.5367V11.8066L100.229 11.9426C99.6155 12.0656 99.3535 12.4576 99.0085 13.0006C98.2225 14.2006 96.6826 16.7365 96.3566 17.4265C96.2626 17.5685 96.1986 17.8425 96.1986 18.0145L96.2626 20.8294C96.2766 21.5394 96.3566 21.9014 96.9286 22.0344C97.2206 22.0874 97.3236 22.1024 97.8286 22.1514L97.7836 22.4014C97.3636 22.4014 96.3216 22.3514 95.3786 22.3514C94.2966 22.3514 93.5857 22.4014 93.0077 22.4014V22.1514C93.4477 22.1214 93.7877 22.0634 94.0846 22.0144C94.6176 21.9014 94.6916 21.5194 94.7066 20.9714L94.7506 18.4215C94.7506 18.1465 94.7066 17.7645 94.5976 17.5685C94.1826 16.6825 93.0327 14.6606 92.3067 13.4606C91.4817 12.1436 91.2937 12.0506 90.7757 11.9286C90.5287 11.8546 90.3008 11.8546 89.9508 11.8056L89.9708 11.5367H89.9848ZM100.904 20.5944C102 18.1265 103.769 13.5296 104.198 12.4176C104.322 12.0996 104.411 11.7816 104.445 11.5757C104.529 11.5757 104.712 11.5907 104.983 11.5907C105.285 11.5907 105.438 11.5757 105.507 11.5757L105.719 12.3446C106.129 13.3976 108.228 19.4345 108.791 20.7844C109.31 21.8964 109.404 21.9704 110.668 22.1174L110.624 22.3914C109.92 22.3634 109.215 22.3467 108.51 22.3414C107.754 22.3414 106.717 22.3614 106.263 22.3914V22.1174C106.623 22.0574 106.944 22.0244 107.201 21.9364C107.483 21.8134 107.483 21.6764 107.408 21.4664C107.201 20.7024 106.505 18.9245 106.164 17.9895L106.016 17.8965C105.813 17.8765 105.403 17.8765 104.361 17.8765C103.21 17.8765 102.993 17.8765 102.781 17.8965L102.628 18.0145C102.272 18.9245 101.502 20.7844 101.447 21.2704C101.413 21.5634 101.393 21.8524 101.995 21.9754C102.228 22.0284 102.42 22.0824 102.82 22.1174L102.781 22.3914C102.366 22.3914 101.447 22.3414 100.613 22.3414C99.7285 22.3414 99.1755 22.3914 98.8105 22.3914V22.1174C100.109 21.9504 100.326 21.8334 100.899 20.5944M104.44 13.1766C104.124 13.9846 103.245 16.4035 102.954 17.1765L103.033 17.2895C103.21 17.2995 103.645 17.2995 104.569 17.2995C105.023 17.2995 105.719 17.2995 105.853 17.2895L105.897 17.1765L104.529 13.1566L104.445 13.1766H104.44ZM117.148 9.7637C117.677 9.7637 118.812 9.8217 119.435 9.8217C120.813 9.8217 121.835 9.7827 122.877 9.7827C125.421 9.7827 126.655 11.1297 126.655 12.8676C126.655 14.6056 125.366 15.5895 124.072 16.0795L124.053 16.2065C124.813 17.3525 126.725 20.0254 127.791 20.9904C128.799 21.9204 129.125 21.9984 130.152 22.0814L130.078 22.4094C129.199 22.4634 127.549 22.3804 126.828 22.1014C126.435 21.9256 126.083 21.6686 125.796 21.3474C124.947 20.4764 123.455 18.0775 122.62 16.9705C122.462 16.7205 122.265 16.6175 122.087 16.6175C121.776 16.5975 120.971 16.6475 120.679 16.6475L120.595 16.7745C120.595 17.9245 120.595 19.9424 120.65 20.7944C120.665 21.6554 120.818 21.8024 121.237 21.9004C121.578 21.9844 121.929 22.0234 122.373 22.0914L122.354 22.4194C122.003 22.4194 120.818 22.3564 119.726 22.3564C118.24 22.3564 117.464 22.4194 117.153 22.4194V22.1114C117.597 22.0474 117.958 22.0134 118.175 21.9494C118.694 21.8274 118.817 21.5534 118.857 20.7994C118.877 20.2214 118.911 17.2095 118.911 16.0795C118.911 14.7186 118.911 11.9766 118.857 11.1437C118.847 10.6107 118.694 10.2967 118.146 10.2287C117.814 10.1487 117.475 10.0995 117.133 10.0817L117.153 9.7777L117.148 9.7637ZM120.758 10.3357L120.66 10.5857C120.59 11.1737 120.59 13.9206 120.59 15.9025L120.674 16.0055C121.484 16.0795 122.788 16.1285 123.356 15.9175C124.038 15.6775 124.922 14.9976 124.922 13.3126C124.922 11.4227 123.766 10.2627 121.435 10.2627C121.233 10.2627 120.946 10.2677 120.758 10.3357Z" fill="white"/>
<path d="M130.246 11.5366C130.695 11.5366 131.372 11.5906 132.409 11.5906H136.053C136.764 11.5906 137.693 11.5706 138.063 11.5266L138.117 11.5706C137.94 12.1386 137.821 13.2306 137.777 13.8816L137.451 13.8966C137.429 13.5128 137.359 13.1332 137.243 12.7666C137.115 12.3886 136.957 12.1436 136.251 12.0996C135.781 12.0606 133.713 12.0456 133.412 12.0996C133.269 12.1196 133.214 12.2566 133.214 12.3496C133.175 13.1086 133.155 16.0315 133.175 16.4275L133.244 16.5645C133.728 16.5995 135.658 16.5795 136.211 16.5445C136.784 16.5065 136.907 16.2465 137.026 15.9245C137.11 15.7375 137.154 15.5225 137.199 15.3115H137.55C137.49 15.6295 137.411 16.3155 137.411 16.8935C137.411 17.5835 137.446 18.0134 137.446 18.3614L137.115 18.3764C137.084 18.1685 137.041 17.9626 136.986 17.7595C136.927 17.5445 136.833 17.1965 136.241 17.1425C135.707 17.1085 133.782 17.1085 133.268 17.1285L133.175 17.2705C133.155 17.7405 133.175 20.1204 133.214 21.1624C133.229 21.5634 133.446 21.7404 133.654 21.7794C134.038 21.8523 134.739 21.8873 135.979 21.8873C137.219 21.8873 137.372 21.6914 137.643 21.4414C137.964 21.1774 138.384 20.4914 138.695 19.8064L138.957 19.9334C138.873 20.4184 138.404 21.8133 138.197 22.2053C138.073 22.3763 138.004 22.3953 137.07 22.3953C135.93 22.3953 135.085 22.3473 132.434 22.3473C131.224 22.3473 130.626 22.3963 129.816 22.3963V22.1223C130.315 22.0873 130.715 22.0623 131.041 21.9803C131.481 21.8723 131.639 21.6564 131.688 20.9714C131.708 20.5454 131.728 18.5234 131.728 16.5065C131.728 14.8415 131.708 13.2066 131.688 12.8686C131.653 12.2076 131.57 12.0506 131.1 11.9436C130.817 11.8703 130.527 11.8241 130.236 11.8056L130.251 11.5366H130.246ZM138.952 11.5366C139.372 11.5366 140.345 11.5906 141.17 11.5906C142.271 11.5906 142.898 11.5506 143.303 11.5366V11.8066C143.008 11.8589 142.714 11.924 142.424 12.0016C142.177 12.0656 142.098 12.2516 142.192 12.4766C142.78 14.0095 145.19 19.7724 145.476 20.3934H145.56C145.832 19.8114 148.158 14.4155 148.682 12.9906C148.889 12.3936 148.86 12.1006 148.321 11.9726C148.04 11.9186 147.788 11.8546 147.368 11.8106L147.427 11.5416C147.827 11.5416 148.514 11.5956 149.344 11.5956C150.233 11.5956 150.835 11.5416 151.176 11.5416V11.8116C150.909 11.8406 150.623 11.8986 150.41 11.9476C149.862 12.0996 149.67 12.4076 149.166 13.5346C148.627 14.7485 147.082 18.2194 146.153 20.3844C145.862 21.0668 145.604 21.7625 145.378 22.4693C145.1 22.4448 144.821 22.4448 144.543 22.4693C144.316 21.7893 144.064 20.9914 143.679 20.0954C142.725 17.7105 141.407 14.4695 140.789 13.1326C140.414 12.2806 140.202 12.0166 139.713 11.9286L138.903 11.8056L138.947 11.5366H138.952ZM151.892 11.5366C152.331 11.5366 153.008 11.5906 154.05 11.5906H157.695C158.401 11.5906 159.335 11.5706 159.7 11.5266L159.745 11.5706C159.582 12.1386 159.463 13.2306 159.399 13.8816L159.083 13.8966C159.06 13.5128 158.991 13.1333 158.876 12.7666C158.742 12.3886 158.584 12.1436 157.888 12.0996C157.419 12.0606 155.349 12.0456 155.043 12.0996L154.85 12.3496C154.816 13.1086 154.791 16.0315 154.816 16.4275L154.89 16.5645C155.364 16.5995 157.28 16.5795 157.838 16.5445C158.416 16.5065 158.55 16.2465 158.663 15.9245C158.737 15.7375 158.796 15.5225 158.821 15.3115H159.177C159.093 15.8348 159.05 16.3636 159.048 16.8935C159.048 17.5835 159.083 18.0134 159.083 18.3614L158.757 18.3764C158.727 18.1674 158.681 17.9611 158.619 17.7595C158.564 17.5445 158.475 17.1965 157.863 17.1425C157.344 17.1085 155.428 17.1085 154.9 17.1285L154.811 17.2705C154.791 17.7405 154.811 20.1204 154.845 21.1624C154.87 21.5634 155.063 21.7404 155.285 21.7794C155.675 21.8523 156.371 21.8873 157.626 21.8873C158.796 21.8873 159.004 21.6914 159.271 21.4414C159.592 21.1774 160.016 20.4914 160.318 19.8064L160.589 19.9334C160.505 20.4184 160.036 21.8133 159.824 22.2053C159.7 22.3763 159.631 22.3953 158.698 22.3953C157.547 22.3953 156.707 22.3473 154.07 22.3473C152.84 22.3473 152.252 22.3963 151.447 22.3963V22.1223C151.941 22.0873 152.341 22.0623 152.667 21.9803C153.102 21.8723 153.255 21.6564 153.319 20.9714C153.339 20.5454 153.359 18.5234 153.359 16.5065C153.359 14.8415 153.339 13.2066 153.319 12.8686C153.275 12.2076 153.201 12.0506 152.732 11.9436C152.452 11.8707 152.166 11.8245 151.877 11.8056L151.892 11.5366ZM161.162 11.5366C161.528 11.5366 162.446 11.5906 163.108 11.5906C163.533 11.5906 163.8 11.5906 163.973 11.5706C164.027 11.6886 164.205 11.9626 164.699 12.5106C166.689 14.8175 170.897 19.5764 171.736 20.4914L171.791 20.4614C171.791 18.1364 171.835 14.0975 171.717 12.9466C171.682 12.4376 171.569 12.1436 171.035 11.9726C170.709 11.8896 170.354 11.8496 169.884 11.8016L169.904 11.5316C170.403 11.5316 171.223 11.5856 172.127 11.5856C172.69 11.5856 173.662 11.5316 173.899 11.5316V11.8016C173.544 11.8456 173.376 11.8896 173.154 11.9386C172.655 12.0896 172.541 12.4526 172.527 12.8926C172.398 14.2885 172.428 17.7745 172.388 20.0904C172.388 20.8834 172.393 21.8673 172.428 22.4353C172.059 22.4108 171.69 22.4108 171.322 22.4353C170.403 21.1674 164.54 14.4595 163.701 13.4806L163.637 13.4906C163.597 15.2775 163.627 19.8604 163.651 20.8144C163.681 21.6564 163.953 21.8673 164.392 21.9743C164.726 22.0432 165.064 22.0909 165.405 22.1173L165.385 22.3913C165.024 22.3913 164.19 22.3423 163.251 22.3423C162.313 22.3423 161.691 22.3913 161.305 22.3913V22.1173C161.691 22.0833 161.903 22.0583 162.145 21.9903C162.56 21.8823 162.832 21.6864 162.891 20.8244C162.945 19.9974 163.014 16.7655 163.054 13.1236C163.054 12.8876 162.896 12.5106 162.609 12.2716C162.219 11.9186 161.814 11.8846 161.118 11.7966L161.162 11.5266V11.5366ZM174.487 11.5366C174.768 11.5366 175.707 11.5906 176.675 11.5906C177.643 11.5906 178.319 11.5366 178.739 11.5366V11.8066C178.354 11.8796 178.161 11.8946 177.929 11.9676C177.598 12.0506 177.475 12.2276 177.435 12.9276C177.386 14.3125 177.401 17.4025 177.435 18.3424C177.514 19.5664 177.697 20.1444 178.073 20.6524C178.665 21.5004 179.806 21.9413 181.11 21.9413C182.819 21.9413 184.276 21.3194 184.429 18.6514C184.503 17.3235 184.542 15.0275 184.463 13.2356C184.449 12.1776 184.123 12.0316 183.614 11.9286C183.347 11.8846 183.184 11.8846 182.819 11.8256L182.843 11.5556C183.14 11.5556 183.777 11.5956 184.844 11.5956C185.639 11.5956 186.232 11.5556 186.577 11.5556V11.8256C186.291 11.8556 186.044 11.8946 185.871 11.9426C185.392 12.0946 185.259 12.3346 185.219 13.3186C185.145 17.1135 185.145 18.1704 184.938 19.3164C184.528 21.8673 182.582 22.6603 180.488 22.6603C177.687 22.6603 176.275 21.5204 175.998 19.4874C175.84 18.3964 175.909 14.3125 175.875 12.8976C175.875 12.4226 175.815 12.0946 175.391 11.9726C175.178 11.8986 174.749 11.8406 174.482 11.8106V11.5416L174.487 11.5366ZM187.293 11.5366C187.723 11.5366 188.419 11.5906 189.441 11.5906H193.086C193.792 11.5906 194.731 11.5706 195.091 11.5266L195.141 11.5706C194.978 12.1386 194.859 13.2306 194.805 13.8816L194.479 13.8966C194.458 13.513 194.39 13.1335 194.276 12.7666C194.143 12.3886 193.995 12.1436 193.289 12.0996C192.805 12.0606 190.745 12.0456 190.434 12.0996L190.251 12.3496C190.217 13.1086 190.182 16.0315 190.217 16.4275L190.291 16.5645C190.76 16.5995 192.696 16.5795 193.239 16.5445C193.812 16.5065 193.95 16.2465 194.064 15.9245C194.138 15.7258 194.192 15.5206 194.227 15.3115H194.578C194.49 15.8342 194.445 16.3634 194.444 16.8935C194.444 17.5835 194.479 18.0134 194.479 18.3614L194.158 18.3764C194.099 18.0584 194.084 17.9704 194.02 17.7595C193.965 17.5445 193.876 17.1965 193.254 17.1425C192.74 17.1085 190.824 17.1085 190.31 17.1285L190.212 17.2705C190.177 17.7405 190.212 20.1204 190.246 21.1624C190.271 21.5634 190.473 21.7404 190.676 21.7794C191.056 21.8523 191.767 21.8873 193.007 21.8873C194.247 21.8873 194.4 21.6914 194.662 21.4414C194.988 21.1774 195.412 20.4914 195.714 19.8064L195.985 19.9334C195.901 20.4184 195.422 21.8133 195.22 22.2053C195.096 22.3763 195.022 22.3953 194.084 22.3953C192.948 22.3953 192.108 22.3473 189.451 22.3473C188.231 22.3473 187.624 22.3963 186.834 22.3963V22.1223C187.342 22.0873 187.737 22.0623 188.068 21.9803C188.493 21.8723 188.656 21.6564 188.71 20.9714C188.725 20.5454 188.76 18.5234 188.76 16.5065C188.76 14.8415 188.725 13.2066 188.71 12.8686C188.666 12.2076 188.587 12.0506 188.113 11.9436C187.835 11.871 187.55 11.8248 187.263 11.8056L187.283 11.5366H187.293ZM53.7545 36.414C55.0435 33.5501 57.0775 28.1942 57.5965 26.9012C57.7344 26.5342 57.8384 26.1612 57.8834 25.9172C57.9714 25.9172 58.1934 25.9322 58.5054 25.9322C58.8654 25.9322 59.0434 25.9172 59.1074 25.9172L59.3794 26.8172C59.8434 28.0422 62.2833 35.073 62.9593 36.654C63.5473 37.9419 63.6563 38.0299 65.1383 38.1869L65.0833 38.5099C64.2623 38.4789 63.4409 38.4592 62.6193 38.4509C61.7253 38.4509 60.5294 38.4709 60.0014 38.5099V38.1869C60.4164 38.1229 60.8014 38.0889 61.0934 37.9809C61.4194 37.8439 61.4194 37.6779 61.3304 37.4379C61.0934 36.556 60.2884 34.476 59.8934 33.3931L59.7154 33.2811C59.4884 33.2711 59.0044 33.2711 57.8134 33.2711C56.4505 33.2711 56.1985 33.2711 55.9615 33.2811L55.7795 33.4331C55.3595 34.48 54.4755 36.659 54.4065 37.213C54.3565 37.5599 54.3365 37.8829 55.0485 38.0349C55.3145 38.0939 55.5325 38.1519 56.0015 38.1919L55.9565 38.5149C55.4585 38.5149 54.4015 38.4559 53.4186 38.4559C52.4356 38.4559 51.7586 38.5149 51.3286 38.5149V38.1919C52.8406 38.0109 53.0876 37.8639 53.7585 36.419M57.8924 27.7872C57.5125 28.7322 56.4905 31.5431 56.1595 32.4491L56.2485 32.5611C56.4505 32.5811 56.9585 32.5811 58.0214 32.5811C58.5544 32.5811 59.3844 32.5811 59.5414 32.5611L59.5814 32.4491L57.9814 27.7632L57.8924 27.7832V27.7872ZM64.0023 27.6382C64.2883 27.6382 65.2273 27.6912 66.1902 27.6912C67.1532 27.6912 67.8402 27.6382 68.2502 27.6382V27.9072C67.8742 27.9762 67.6762 28.0002 67.4502 28.0642C67.1082 28.1622 66.9952 28.3332 66.9552 29.0282C66.8962 30.4041 66.9152 33.5131 66.9552 34.443C67.0352 35.663 67.2022 36.24 67.5832 36.754C68.1802 37.6109 69.3211 38.0419 70.6151 38.0419C72.3391 38.0419 73.785 37.4299 73.939 34.752C74.018 33.4251 74.047 31.1331 73.973 29.3372C73.963 28.2792 73.633 28.1372 73.1391 28.0342C72.8721 27.9762 72.6991 27.9762 72.3441 27.9312L72.3581 27.6622C72.6651 27.6622 73.287 27.6962 74.364 27.6962C75.159 27.6962 75.751 27.6622 76.092 27.6622V27.9322C75.811 27.9612 75.559 28.0052 75.391 28.0542C74.907 28.1912 74.778 28.4412 74.739 29.4302C74.659 33.2241 74.659 34.272 74.457 35.423C74.047 37.9779 72.1021 38.7669 70.0071 38.7669C67.1972 38.7669 65.7752 37.6209 65.5233 35.599C65.3653 34.502 65.4193 30.4091 65.3853 29.0092C65.3853 28.5292 65.3353 28.1912 64.9053 28.0692C64.6983 28.0052 64.2593 27.9462 63.9923 27.9122V27.6422L64.0023 27.6382ZM84.6458 38.5039C84.0578 38.5039 83.0358 38.4449 82.2758 38.4449C81.0599 38.4449 80.1219 38.5039 79.5689 38.5039V38.2389C80.1269 38.1899 80.5419 38.1319 80.7939 38.0829C81.3518 37.9849 81.4208 37.6369 81.4598 36.829C81.4948 36.056 81.5198 31.1351 81.5198 28.3192L81.4058 28.1922C81.0408 28.1722 79.1539 28.1722 78.7489 28.2122C78.4129 28.2272 78.1759 28.3882 77.9889 28.6722C77.7459 29.0202 77.4989 29.6561 77.2819 30.2001L76.966 30.1411C77.109 29.4262 77.2569 28.1632 77.3059 27.4682L77.4009 27.4282C77.7609 27.5902 78.4179 27.6932 78.8919 27.6932H85.9097C86.6017 27.6932 87.0067 27.6592 87.5937 27.4782L87.6687 27.5172C87.5007 28.0462 87.3617 29.2212 87.2887 30.1661H86.9427C86.9077 29.7001 86.8137 29.0882 86.6557 28.7362C86.5077 28.3982 86.2957 28.2562 85.9097 28.2222C85.2038 28.1882 83.5098 28.1882 83.1098 28.2072L83.0108 28.3692C83.0108 30.8611 83.0608 35.963 83.0948 36.883C83.1548 37.8669 83.3618 37.9849 83.7568 38.1029C84.0438 38.1709 84.2308 38.1899 84.6998 38.2389L84.6558 38.5039H84.6458ZM88.5777 27.6382C89.1357 27.6382 90.1526 27.6912 90.8636 27.6912C91.9796 27.6912 92.4336 27.6572 92.9776 27.6382L92.9475 27.9262C92.7256 27.9362 92.3796 28.0002 92.1876 28.0492C91.8026 28.1622 91.6586 28.2592 91.6386 28.8622C91.5896 29.6112 91.5896 30.8501 91.5896 32.4751L91.6986 32.6121C91.7586 32.6421 91.9946 32.6521 95.0325 32.6521C96.7115 32.6521 97.7584 32.6521 97.9654 32.6421L98.0354 32.5441C98.0354 31.6281 98.0354 29.3072 98.0054 28.6712C97.9904 28.3672 97.8674 28.1612 97.6004 28.0642C97.2939 27.9817 96.9788 27.9354 96.6615 27.9262V27.6382C97.0664 27.6382 97.8674 27.6912 98.8644 27.6912C99.7734 27.6912 100.647 27.6382 100.963 27.6382V27.9262C100.617 27.9712 100.331 28.0002 100.124 28.0642C99.7484 28.1862 99.6004 28.2942 99.5654 29.0042C99.5354 29.6701 99.5064 30.9571 99.5064 33.1941C99.5064 34.639 99.5364 36.632 99.5664 37.22C99.6004 37.7479 99.6844 37.9439 100.049 38.0419C100.291 38.1299 100.538 38.1639 101.096 38.2179L101.047 38.5079C100.326 38.5079 99.7534 38.4479 98.8594 38.4479C97.9654 38.4479 97.0474 38.4829 96.5925 38.5079V38.2179C96.9085 38.1879 97.1554 38.1689 97.4824 38.1009C97.8924 37.9879 98.0004 37.8359 98.0154 37.185C98.0294 36.652 98.0294 34.487 98.0294 33.3761L97.9364 33.2541C97.6544 33.2341 95.9365 33.2341 94.9825 33.2341C93.4225 33.2341 91.8566 33.2341 91.6586 33.2641L91.5796 33.3761C91.5796 34.306 91.6096 36.563 91.6296 36.984C91.6886 37.5869 91.6596 37.9199 92.1186 38.0419C92.3796 38.1109 92.5776 38.1639 93.1355 38.2179L93.0756 38.5079C92.3521 38.4708 91.628 38.4508 90.9036 38.4479C90.0236 38.4479 89.0116 38.4829 88.5717 38.5079V38.2179C88.9776 38.1879 89.2636 38.1349 89.4856 38.0619C90.0196 37.9199 90.0686 37.5719 90.1036 36.74C90.1236 36.172 90.1236 34.448 90.1236 32.9301C90.1236 31.2271 90.1036 29.1362 90.0836 28.8422C90.0486 28.3182 89.8956 28.1372 89.5836 28.0642C89.2986 28.0002 89.0466 27.9762 88.5727 27.9262V27.6382H88.5777Z" fill="white"/>
<path d="M102.539 37.1273C101.422 35.9813 100.919 34.4443 100.919 32.9903C100.919 31.7173 101.324 30.6003 101.966 29.7053C103.032 28.2803 105.067 27.3843 107.023 27.3843C110.811 27.3843 112.782 29.9693 112.782 32.8823C112.782 34.3263 112.402 35.4523 111.661 36.4563C110.559 37.9743 108.648 38.7623 106.737 38.7623C105.038 38.7623 103.492 38.0973 102.534 37.1223M109.557 37.5433C110.747 36.6133 111.182 35.0813 111.182 33.4453C111.182 31.6433 110.53 29.6803 108.989 28.6473C108.307 28.1573 107.468 27.8683 106.43 27.8683C105.793 27.8677 105.164 28.0206 104.598 28.3143C103.215 29.1073 102.603 30.7673 102.603 32.5693C102.603 34.3713 103.289 36.4523 104.983 37.5433C105.63 37.9693 106.455 38.2143 107.448 38.2143C108.287 38.2143 109.048 37.9743 109.562 37.5443" fill="white"/>
<path d="M112.332 27.6382C112.787 27.6382 113.775 27.6912 114.293 27.6912C115.478 27.6912 116.358 27.6572 117.252 27.6572C119.43 27.6572 120.496 28.8222 120.496 30.3072C120.496 31.7902 119.395 32.6512 118.279 33.0632L118.264 33.1752C118.906 34.1592 120.556 36.4552 121.464 37.2882C122.329 38.0812 122.615 38.1452 123.499 38.2132L123.43 38.5032C122.67 38.5512 121.257 38.4782 120.64 38.2382C120.299 38.0906 119.995 37.8681 119.751 37.5872C119.025 36.8472 117.75 34.7812 117.029 33.8372C116.891 33.6312 116.723 33.5332 116.565 33.5332C116.303 33.5132 115.612 33.5472 115.36 33.5472L115.286 33.6552C115.286 34.6392 115.286 36.3872 115.32 37.1122C115.34 37.8562 115.474 37.9782 115.839 38.0622C116.125 38.1352 116.427 38.1692 116.807 38.2182L116.792 38.5082C116.481 38.5082 115.474 38.4482 114.535 38.4482C113.256 38.4482 112.589 38.5082 112.327 38.5082V38.2432C112.718 38.1932 113.009 38.1552 113.207 38.1062C113.646 37.9932 113.77 37.7682 113.789 37.1162C113.819 36.6272 113.844 34.0372 113.844 33.0632C113.844 31.8972 113.844 29.5332 113.789 28.8332C113.784 28.3772 113.646 28.1082 113.187 28.0442C112.896 27.9796 112.601 27.9388 112.303 27.9222L112.323 27.6522L112.332 27.6382ZM115.444 28.1322L115.345 28.3382C115.291 28.8572 115.291 31.2222 115.291 32.9062L115.365 32.9942C116.046 33.0532 117.177 33.1022 117.652 32.9212C118.249 32.7052 119.005 32.1282 119.005 30.6832C119.005 29.0582 118.012 28.0532 116.017 28.0532C115.844 28.0532 115.597 28.0692 115.444 28.1272" fill="white"/>
<path d="M123.307 27.6382C123.751 27.6382 124.655 27.6912 125.618 27.6912C126.581 27.6912 127.198 27.6382 127.623 27.6382L127.638 27.9072L126.838 28.0292C126.423 28.1572 126.369 28.3822 126.319 28.9742C126.285 29.6502 126.27 31.4081 126.27 32.9251C126.27 34.83 126.285 36.529 126.3 37.102C126.349 37.616 126.374 37.954 126.902 38.076C127.144 38.1449 127.49 38.1839 127.831 38.2129L127.811 38.5029C127.273 38.5029 126.616 38.4429 125.751 38.4429C124.655 38.4429 124.26 38.5029 123.331 38.5029V38.2129C123.613 38.1929 123.968 38.1449 124.176 38.096C124.655 37.998 124.724 37.758 124.764 37.288C124.798 36.774 124.823 34.1151 124.823 32.5041C124.823 31.0741 124.823 29.7382 124.788 28.9302C124.729 28.5242 124.729 28.1712 124.319 28.0642C123.989 27.9931 123.656 27.9407 123.321 27.9072V27.6372L123.307 27.6382ZM136.3 38.5039C135.707 38.5039 134.67 38.4449 133.929 38.4449C132.705 38.4449 131.772 38.5039 131.234 38.5039V38.2389C131.641 38.2064 132.046 38.1544 132.449 38.083C133.002 37.985 133.076 37.637 133.115 36.829C133.155 36.056 133.174 31.1351 133.174 28.3192L133.061 28.1922C132.691 28.1722 130.804 28.1722 130.399 28.2122C130.058 28.2272 129.831 28.3882 129.643 28.6722C129.391 29.0202 129.144 29.6562 128.932 30.2002L128.611 30.1412C128.754 29.4262 128.917 28.1632 128.962 27.4682L129.051 27.4282C129.411 27.5902 130.058 27.6932 130.532 27.6932H137.554C138.241 27.6932 138.651 27.6592 139.234 27.4782L139.318 27.5172C139.145 28.0462 139.011 29.2212 138.927 30.1662H138.592C138.542 29.7002 138.453 29.0882 138.3 28.7362C138.147 28.3982 137.93 28.2562 137.554 28.2222C136.625 28.1909 135.694 28.1859 134.764 28.2072L134.665 28.3692C134.665 30.8611 134.695 35.963 134.739 36.883C134.794 37.867 135.011 37.985 135.401 38.103C135.692 38.1709 135.88 38.1899 136.344 38.2389L136.31 38.5039H136.3ZM140.098 27.6352C140.671 27.6352 141.466 27.6892 142.424 27.6892C143.106 27.6892 144.029 27.6542 144.271 27.6352L144.291 27.9042C144.118 27.9242 143.832 27.9972 143.679 28.0262C143.382 28.0902 143.318 28.2422 143.501 28.6292C144.024 29.6082 145.644 32.4481 146.015 33.0551H146.104C146.756 32.0221 148.089 29.8282 148.514 28.8352C148.711 28.3792 148.622 28.1542 148.084 28.0462C147.832 27.9972 147.659 27.9732 147.284 27.9042L147.319 27.6342C147.817 27.6542 148.618 27.6892 149.235 27.6892C149.966 27.6892 150.425 27.6542 151.117 27.6352V27.9042L150.331 28.0462C149.719 28.1682 149.452 28.5562 149.111 29.1092C148.331 30.3031 146.785 32.8351 146.454 33.5291C146.356 33.6671 146.306 33.9511 146.306 34.1121L146.36 36.932C146.38 37.632 146.459 38 147.027 38.1269C147.324 38.1859 147.437 38.1959 147.926 38.2499L147.887 38.4999C147.472 38.4999 146.42 38.4399 145.491 38.4399C144.405 38.4399 143.693 38.4999 143.116 38.4999V38.2499C143.565 38.2099 143.901 38.1619 144.187 38.103C144.716 37.995 144.81 37.613 144.815 37.07L144.849 34.514C144.849 34.244 144.815 33.8581 144.691 33.6621C144.281 32.7811 143.13 30.7591 142.414 29.5542C141.585 28.2372 141.402 28.1492 140.888 28.0222C140.631 27.9482 140.409 27.9482 140.063 27.8992L140.088 27.6292L140.098 27.6352ZM153.354 54.9895C153.281 54.8682 153.179 54.7671 153.057 54.6955C152.934 54.6236 152.794 54.5867 152.652 54.5885C152.509 54.5868 152.367 54.6237 152.243 54.6955C152.121 54.7671 152.019 54.8682 151.946 54.9895C151.873 55.1126 151.836 55.2535 151.838 55.3965C151.838 55.5425 151.872 55.6755 151.946 55.7975C152.02 55.9205 152.119 56.0175 152.243 56.0915C152.367 56.1643 152.508 56.2016 152.652 56.1995C152.794 56.2017 152.935 56.1643 153.057 56.0915C153.179 56.02 153.281 55.9189 153.354 55.7975C153.426 55.6763 153.464 55.5376 153.462 55.3965C153.464 55.2535 153.426 55.1128 153.354 54.9895ZM153.853 50.8676C153.744 50.7446 153.571 50.6866 153.324 50.6866C153.107 50.6866 152.934 50.7346 152.815 50.8286C152.705 50.9082 152.62 51.0165 152.568 51.1416C152.524 51.2686 152.489 51.4986 152.465 51.8416L152.396 54.3335H153.22L153.838 52.1896C153.897 51.9886 153.937 51.8176 153.971 51.6756C154.001 51.5336 154.016 51.4006 154.016 51.2686C154.014 51.1202 153.958 50.9777 153.858 50.8676M148.82 53.7995C148.914 53.5596 149.012 53.3696 149.121 53.2226C149.171 53.152 149.238 53.0949 149.316 53.0565C149.394 53.0181 149.48 52.9996 149.566 53.0026C149.877 53.0026 150.03 53.2226 150.03 53.6676V53.7956H148.82V53.7995ZM151.057 52.9196C150.916 52.6605 150.701 52.4489 150.44 52.3116C150.177 52.1785 149.885 52.1113 149.59 52.1156C149.202 52.1108 148.82 52.2134 148.486 52.4121C148.152 52.6108 147.88 52.8978 147.699 53.2416C147.511 53.5846 147.417 53.9615 147.417 54.3685C147.417 54.6375 147.472 54.9115 147.585 55.1905C147.699 55.4705 147.911 55.7045 148.217 55.9055C148.528 56.1055 148.953 56.2045 149.496 56.2045C149.753 56.2045 149.966 56.1845 150.134 56.1445C150.302 56.1065 150.524 56.0325 150.805 55.9205L151.003 54.9505C150.707 55.0685 150.455 55.1605 150.242 55.2205C150.007 55.2859 149.765 55.3169 149.521 55.3125C148.983 55.3125 148.711 55.0385 148.711 54.4955H151.23C151.265 54.2945 151.284 54.1035 151.284 53.9175C151.284 53.5206 151.205 53.1876 151.052 52.9186M144.395 53.7995C144.488 53.5596 144.587 53.3696 144.696 53.2226C144.746 53.1521 144.813 53.0952 144.891 53.0568C144.968 53.0184 145.054 52.9998 145.14 53.0026C145.452 53.0026 145.605 53.2226 145.605 53.6676V53.7956H144.395V53.7995ZM146.632 52.9196C146.491 52.6606 146.276 52.4492 146.015 52.3116C145.752 52.1785 145.46 52.1113 145.165 52.1156C144.777 52.1106 144.394 52.2131 144.06 52.4118C143.727 52.6105 143.454 52.8977 143.273 53.2416C143.086 53.5846 142.992 53.9615 142.992 54.3685C142.992 54.6375 143.046 54.9115 143.16 55.1905C143.273 55.4705 143.481 55.7045 143.792 55.9055C144.103 56.1055 144.528 56.2045 145.071 56.2045C145.328 56.2045 145.54 56.1845 145.708 56.1445C145.876 56.1065 146.099 56.0325 146.38 55.9205L146.578 54.9505C146.281 55.0685 146.029 55.1605 145.817 55.2205C145.583 55.2859 145.34 55.3169 145.096 55.3125C144.558 55.3125 144.286 55.0385 144.286 54.4955H146.805C146.839 54.2945 146.859 54.1035 146.859 53.9175C146.859 53.5206 146.78 53.1876 146.627 52.9186M142.088 52.4886C141.915 52.2386 141.599 52.1156 141.14 52.1156C140.952 52.1156 140.779 52.1456 140.621 52.2086C140.472 52.2631 140.331 52.3371 140.201 52.4286C140.087 52.5096 139.98 52.5999 139.88 52.6986C139.688 52.3116 139.367 52.1206 138.917 52.1206C138.685 52.1188 138.456 52.1763 138.251 52.2876C138.063 52.3839 137.888 52.5057 137.732 52.6496L137.806 52.1896H136.507L135.919 56.1355H137.228L137.589 53.6336C137.767 53.4626 137.92 53.3346 138.038 53.2516C138.14 53.1761 138.263 53.1336 138.389 53.1296C138.493 53.1296 138.567 53.1596 138.606 53.2126C138.646 53.2716 138.665 53.3546 138.665 53.4626C138.665 53.5256 138.651 53.6776 138.616 53.9175L138.285 56.1305H139.589L139.959 53.5406C140.276 53.2606 140.532 53.1196 140.725 53.1196C140.918 53.1196 141.016 53.2566 141.016 53.5256C141.016 53.5946 141.007 53.6876 140.992 53.7995L140.646 56.1255H141.955L142.291 53.8246C142.319 53.646 142.337 53.4661 142.345 53.2856C142.343 52.9972 142.252 52.7166 142.083 52.4826M132.942 53.7906C133.036 53.5506 133.134 53.3596 133.243 53.2126C133.293 53.1419 133.36 53.0848 133.438 53.0464C133.515 53.008 133.601 52.9895 133.687 52.9926C133.998 52.9926 134.151 53.2126 134.151 53.6586V53.7855H132.942V53.7906ZM135.179 52.9086C135.038 52.6498 134.823 52.4386 134.561 52.3016C134.299 52.1685 134.007 52.1013 133.712 52.1056C133.324 52.1007 132.941 52.2033 132.608 52.4022C132.274 52.6011 132.001 52.8885 131.821 53.2326C131.634 53.5746 131.54 53.9525 131.54 54.3585C131.54 54.6275 131.594 54.9015 131.708 55.1805C131.821 55.4605 132.029 55.6945 132.34 55.8955C132.651 56.0955 133.076 56.1945 133.618 56.1945C133.875 56.1945 134.087 56.1745 134.255 56.1355C134.423 56.0955 134.645 56.0225 134.927 55.9105L135.124 54.9405C134.828 55.0585 134.576 55.1505 134.364 55.2105C134.13 55.2761 133.887 55.3074 133.643 55.3035C133.105 55.3035 132.834 55.0285 132.834 54.4855H135.351C135.386 54.2855 135.406 54.0935 135.406 53.9075C135.406 53.5116 135.327 53.1776 135.174 52.9086M129.47 57.1685C129.362 57.2225 129.159 57.2465 128.863 57.2465C128.566 57.2465 128.339 57.2225 128.201 57.1685C128.063 57.1145 127.994 57.0315 127.994 56.9135C127.993 56.8755 128.002 56.8381 128.019 56.8042C128.036 56.7703 128.061 56.7409 128.092 56.7185C128.157 56.6685 128.285 56.6055 128.473 56.5325L128.72 56.5665C129.095 56.6155 129.337 56.6595 129.455 56.7035C129.574 56.7475 129.633 56.8305 129.633 56.9535C129.633 57.0465 129.579 57.1195 129.47 57.1685ZM129.48 54.0005C129.391 54.1675 129.238 54.2505 129.031 54.2505C128.967 54.2515 128.903 54.2388 128.844 54.2135C128.786 54.1882 128.733 54.1507 128.69 54.1035C128.64 54.0487 128.602 53.9846 128.577 53.9149C128.553 53.8452 128.542 53.7713 128.547 53.6976C128.547 53.5406 128.591 53.3696 128.68 53.1926C128.769 53.0126 128.922 52.9236 129.144 52.9236C129.292 52.9236 129.411 52.9736 129.49 53.0656C129.574 53.1586 129.614 53.2906 129.614 53.4676C129.614 53.6576 129.569 53.8345 129.48 54.0005ZM129.046 52.1796C128.729 52.1796 128.463 52.2236 128.24 52.3116C128.018 52.3996 127.84 52.5116 127.707 52.6546C127.58 52.7851 127.481 52.9398 127.416 53.1096C127.344 53.2995 127.317 53.5032 127.337 53.7052C127.356 53.9071 127.422 54.1019 127.529 54.2745C127.663 54.5095 127.845 54.6765 128.082 54.7745C127.51 54.8575 127.228 55.0825 127.228 55.4545C127.228 55.6265 127.272 55.7585 127.361 55.8565C127.45 55.9545 127.569 56.0425 127.717 56.1265C127.124 56.3215 126.828 56.6155 126.828 56.9965C126.828 57.1985 126.877 57.3645 126.976 57.4965C127.082 57.6353 127.226 57.7408 127.391 57.8004C127.569 57.8684 127.776 57.9224 128.018 57.9474C128.26 57.9764 128.532 57.9864 128.838 57.9864C129.391 57.9864 129.816 57.9224 130.117 57.7904C130.419 57.6585 130.616 57.5065 130.71 57.3255C130.809 57.1445 130.853 56.9585 130.853 56.7675C130.853 56.1695 130.389 55.7875 129.46 55.6165C129.228 55.5753 128.998 55.5296 128.769 55.4795C128.636 55.4455 128.547 55.4155 128.507 55.3815C128.468 55.3475 128.453 55.2985 128.453 55.2345C128.453 55.1565 128.492 55.0975 128.566 55.0585C128.66 55.0136 128.763 54.9917 128.868 54.9945H129.1C129.475 54.9945 129.796 54.9355 130.058 54.8185C130.32 54.7005 130.517 54.5385 130.646 54.3285C130.774 54.1185 130.843 53.8785 130.843 53.6086C130.843 53.4386 130.809 53.2516 130.74 53.0506H131.303L131.426 52.1706H129.055L129.046 52.1796ZM124.28 53.7896C124.373 53.5496 124.472 53.3596 124.581 53.2126C124.631 53.142 124.698 53.085 124.775 53.0466C124.852 53.0083 124.938 52.9897 125.025 52.9926C125.336 52.9926 125.49 53.2126 125.49 53.6586V53.7855H124.28V53.7896ZM126.517 52.9096C126.375 52.6504 126.16 52.4389 125.899 52.3016C125.636 52.1684 125.344 52.1011 125.05 52.1056C124.661 52.1007 124.279 52.2033 123.945 52.4022C123.611 52.6011 123.338 52.8885 123.158 53.2326C122.971 53.5746 122.877 53.9525 122.877 54.3585C122.877 54.6275 122.931 54.9015 123.045 55.1805C123.158 55.4605 123.366 55.6945 123.677 55.8955C123.988 56.0955 124.413 56.1945 124.956 56.1945C125.213 56.1945 125.425 56.1745 125.593 56.1355C125.761 56.0955 125.983 56.0225 126.265 55.9105L126.462 54.9405C126.166 55.0585 125.914 55.1505 125.702 55.2105C125.467 55.2763 125.224 55.3076 124.981 55.3035C124.442 55.3035 124.171 55.0285 124.171 54.4855H126.69C126.724 54.2855 126.744 54.0935 126.744 53.9075C126.744 53.5116 126.665 53.1776 126.512 52.9086M121.716 52.1746L121.869 51.3866H120.556L120.402 52.1746H119.662L119.484 53.1446H120.22L119.948 54.5885C119.918 54.7405 119.904 54.8825 119.904 55.0185C119.904 55.3285 119.983 55.5775 120.146 55.7635C120.279 55.9245 120.432 56.0375 120.595 56.1015C120.758 56.1595 120.926 56.1945 121.099 56.1945C121.494 56.1945 121.869 56.0915 122.225 55.8805L122.299 54.6865C121.998 54.9065 121.741 55.0195 121.529 55.0195C121.331 55.0195 121.237 54.9115 121.237 54.6915C121.237 54.6275 121.247 54.5445 121.267 54.4365L121.529 53.1486H122.299L122.506 52.1786H121.711L121.716 52.1746ZM117.711 52.1746L117.143 56.1205H118.466L119.034 52.1746H117.711ZM119.025 50.9746C118.971 50.8829 118.894 50.807 118.802 50.7546C118.689 50.6869 118.556 50.6592 118.425 50.6761C118.294 50.693 118.173 50.7534 118.081 50.8476C118.024 50.902 117.979 50.9674 117.948 51.0397C117.918 51.1121 117.902 51.19 117.903 51.2686C117.903 51.4306 117.963 51.5676 118.081 51.6846C118.136 51.7413 118.202 51.7862 118.275 51.8166C118.348 51.847 118.427 51.8623 118.506 51.8616C118.585 51.8628 118.664 51.8477 118.737 51.8172C118.81 51.7868 118.876 51.7416 118.931 51.6846C119.025 51.5935 119.085 51.4733 119.102 51.3435C119.12 51.2137 119.092 51.0819 119.025 50.9696M115.187 52.1696L114.629 56.1155C114.594 56.3705 114.53 56.5615 114.436 56.6885C114.342 56.8165 114.184 56.8745 113.962 56.8745H113.868L113.71 57.9124C113.918 57.9624 114.091 57.9814 114.234 57.9814C114.683 57.9814 115.054 57.8494 115.345 57.5795C115.636 57.3105 115.814 56.9625 115.873 56.5275L116.501 52.1696H115.187ZM116.486 50.9696C116.433 50.8778 116.356 50.8018 116.264 50.7496C116.151 50.6824 116.018 50.655 115.887 50.6719C115.757 50.6887 115.635 50.7489 115.543 50.8426C115.486 50.8968 115.441 50.9622 115.41 51.0346C115.38 51.107 115.364 51.185 115.365 51.2636C115.365 51.4256 115.424 51.5626 115.543 51.6796C115.598 51.7363 115.664 51.7813 115.737 51.8117C115.81 51.8421 115.888 51.8574 115.967 51.8566C116.046 51.8579 116.125 51.843 116.198 51.8127C116.271 51.7824 116.337 51.7375 116.392 51.6806C116.449 51.6265 116.495 51.5611 116.526 51.4884C116.556 51.4157 116.571 51.3375 116.57 51.2586C116.569 51.1552 116.54 51.0541 116.486 50.9656M112.747 52.1656L112.397 54.5585C112.174 54.7695 111.996 54.9165 111.863 55.0045C111.747 55.0887 111.607 55.1348 111.463 55.1365C111.246 55.1365 111.132 55.0145 111.132 54.7645C111.132 54.7055 111.132 54.6615 111.142 54.6275L111.503 52.1646H110.209L109.853 54.5495C109.828 54.7545 109.813 54.9015 109.813 54.9845C109.813 55.1615 109.848 55.3425 109.912 55.5235C109.977 55.7102 110.098 55.8725 110.258 55.9885C110.421 56.1155 110.643 56.1795 110.925 56.1795C111.191 56.1784 111.452 56.1165 111.69 55.9985C111.784 55.9485 111.883 55.8905 111.992 55.8175C112.1 55.7435 112.179 55.6845 112.234 55.6505L112.169 56.1105H113.468L114.061 52.1646L112.747 52.1656ZM104.998 50.7396L104.83 51.8316H106.574L105.936 56.1115H107.314L107.961 51.8316H109.715L109.873 50.7396H104.993H104.998ZM103.408 54.8625C103.319 54.7664 103.21 54.6905 103.089 54.6398C102.968 54.5891 102.837 54.5648 102.706 54.5685C102.481 54.5637 102.263 54.6441 102.094 54.7935C102.011 54.8678 101.946 54.9595 101.902 55.0619C101.859 55.1644 101.838 55.2752 101.842 55.3865C101.842 55.6465 101.911 55.8315 102.059 55.9345C102.203 56.0425 102.361 56.1105 102.538 56.1505C102.477 56.2805 102.399 56.4021 102.306 56.5125C102.215 56.6147 102.102 56.695 101.975 56.7475C101.801 56.8135 101.618 56.8546 101.432 56.8695L101.328 57.2905C101.516 57.2905 101.684 57.2865 101.832 57.2705C101.98 57.2615 102.124 57.2375 102.257 57.2075C102.395 57.1775 102.524 57.1345 102.642 57.0755C102.835 56.9875 102.998 56.8855 103.126 56.7725C103.365 56.5736 103.542 56.3101 103.635 56.0135C103.674 55.8805 103.694 55.7485 103.694 55.6115C103.694 55.3085 103.6 55.0535 103.418 54.8575M100.123 52.1646L99.7734 54.5585C99.5514 54.7695 99.3734 54.9165 99.2394 55.0045C99.1228 55.0887 98.9831 55.1348 98.8394 55.1365C98.6224 55.1365 98.5094 55.0145 98.5094 54.7645C98.5094 54.7055 98.5094 54.6615 98.5194 54.6275L98.8794 52.1646H97.5854L97.2294 54.5495C97.2044 54.7545 97.1894 54.9015 97.1894 54.9845C97.1894 55.1615 97.2244 55.3425 97.2894 55.5235C97.3543 55.71 97.4747 55.8723 97.6344 55.9885C97.7974 56.1155 98.0194 56.1795 98.3014 56.1795C98.5669 56.1787 98.8286 56.1167 99.0664 55.9985C99.1604 55.9485 99.2594 55.8905 99.3684 55.8175C99.4764 55.7435 99.5554 55.6845 99.6104 55.6505L99.5464 56.1105H100.844L101.437 52.1646H100.123ZM96.7404 52.2046C96.624 52.1308 96.4883 52.0932 96.3504 52.0966C96.0694 52.0966 95.7525 52.3066 95.3975 52.7326L95.4815 52.1646H94.1915L93.5995 56.1115H94.8895L95.2245 53.8535C95.4365 53.4916 95.6745 53.3056 95.9305 53.3056C96.0644 53.3056 96.1724 53.3496 96.2614 53.4326C96.3454 53.5166 96.4244 53.6236 96.4984 53.7416L97.1114 52.4926C97.002 52.3811 96.8814 52.2813 96.7514 52.1946M91.8216 52.1546L91.4716 54.5495C91.2486 54.7595 91.0716 54.9065 90.9376 54.9945C90.8211 55.0787 90.6813 55.1248 90.5376 55.1265C90.3206 55.1265 90.2076 55.0045 90.2076 54.7545C90.2076 54.6955 90.2076 54.6515 90.2166 54.6175L90.5766 52.1546H89.2836L88.9276 54.5395C88.9026 54.7455 88.8876 54.8915 88.8876 54.9755C88.8876 55.1515 88.9226 55.3325 88.9876 55.5135C89.0525 55.7 89.1729 55.8623 89.3326 55.9785C89.4956 56.1065 89.7176 56.1695 89.9996 56.1695C90.265 56.169 90.5268 56.1074 90.7646 55.9895C90.8586 55.9395 90.9576 55.8805 91.0656 55.8075C91.1756 55.7345 91.2536 55.6755 91.3076 55.6415L91.2436 56.1015H92.5435L93.1355 52.1546H91.8216ZM88.0777 52.7476C88.0139 52.5618 87.8954 52.3997 87.7377 52.2826C87.5697 52.1496 87.3427 52.0866 87.0457 52.0866C86.7987 52.0866 86.5817 52.1306 86.3937 52.2186C86.2017 52.3066 85.9887 52.4386 85.7467 52.6156L86.0287 50.7256H84.7387L83.9288 56.1015H85.2387L85.5887 53.7216C85.8017 53.5216 85.9737 53.3746 86.1127 53.2816C86.2289 53.1954 86.3682 53.1459 86.5127 53.1396C86.6257 53.1396 86.7097 53.1836 86.7647 53.2716C86.8204 53.3628 86.8495 53.4677 86.8487 53.5746C86.8487 53.5996 86.8487 53.6286 86.8387 53.6726L86.4727 56.1065H87.7767L88.1126 53.8396C88.1526 53.5996 88.1727 53.4086 88.1727 53.2616C88.1727 53.0996 88.1427 52.9286 88.0777 52.7476ZM82.9118 52.1796C82.6928 52.1131 82.4646 52.0818 82.2358 52.0866C81.7458 52.0866 81.3708 52.2086 81.1148 52.4486C80.8578 52.6886 80.7288 52.9686 80.7288 53.2806C80.7288 53.5066 80.8028 53.7116 80.9518 53.8975C81.0998 54.0795 81.2818 54.2555 81.4998 54.4215C81.7418 54.5985 81.8998 54.7205 81.9838 54.7935C82.0678 54.8675 82.1068 54.9455 82.1068 55.0195C82.1068 55.0825 82.0768 55.1365 82.0178 55.1855C81.9466 55.2382 81.8593 55.2644 81.7708 55.2595C81.5938 55.2595 81.4258 55.2345 81.2728 55.1805C81.1148 55.1265 80.8928 55.0435 80.6058 54.9265L80.4378 55.8315C80.8524 56.047 81.3099 56.1672 81.7768 56.1835C82.1118 56.1835 82.3988 56.1205 82.6308 55.9985C82.8628 55.8715 83.0358 55.7145 83.1538 55.5185C83.2678 55.3225 83.3268 55.1265 83.3268 54.9355C83.3268 54.7845 83.2828 54.6225 83.1938 54.4455C83.1038 54.2755 82.9268 54.0795 82.6648 53.8585C82.5565 53.7695 82.4448 53.6848 82.3298 53.6046C82.2344 53.5409 82.145 53.4686 82.0628 53.3886C82.0124 53.3381 81.9837 53.2699 81.9828 53.1986C81.9828 53.0756 82.0728 53.0166 82.2498 53.0166C82.3838 53.0166 82.5718 53.0566 82.8038 53.1346C83.0358 53.2126 83.2478 53.3006 83.4408 53.3946L83.5398 52.4636C83.3438 52.3557 83.1387 52.2653 82.9268 52.1936M78.8769 50.7396L78.4029 53.8246C78.3529 54.1135 78.2699 54.3385 78.1359 54.5095C78.0166 54.672 77.8541 54.7977 77.6669 54.8725C77.47 54.9472 77.2605 54.9836 77.0499 54.9795C76.5949 54.9795 76.2839 54.8825 76.116 54.6865C75.9455 54.4822 75.8562 54.2224 75.865 53.9565C75.865 53.8246 75.875 53.6866 75.899 53.5506L76.314 50.7446H74.936L74.531 53.4136C74.481 53.7166 74.457 53.9815 74.457 54.2115C74.457 54.4905 74.536 54.7795 74.689 55.0825C74.842 55.3865 75.114 55.6455 75.504 55.8615C75.894 56.0765 76.4129 56.1895 77.0599 56.1895C77.5079 56.1978 77.953 56.1162 78.3689 55.9495C78.7539 55.7925 79.0649 55.5475 79.3069 55.2245C79.5489 54.9015 79.7069 54.5005 79.7769 54.0245L80.2549 50.7396H78.8769ZM68.6781 53.7795C68.7721 53.5406 68.8711 53.3496 68.9801 53.2026C69.0302 53.132 69.0969 53.075 69.1744 53.0366C69.2519 52.9983 69.3377 52.9797 69.4241 52.9826C69.7351 52.9826 69.8891 53.2026 69.8891 53.6486V53.7756H68.6791V53.7806L68.6781 53.7795ZM70.9161 52.8996C70.7746 52.6404 70.5596 52.4289 70.2981 52.2916C70.0347 52.1587 69.7431 52.0918 69.4481 52.0966C69.0599 52.0919 68.678 52.1946 68.3445 52.3933C68.011 52.592 67.7389 52.879 67.5582 53.2226C67.3699 53.5678 67.2728 53.9553 67.2762 54.3485C67.2762 54.6185 67.3302 54.8915 67.4442 55.1705C67.5572 55.4505 67.7642 55.6855 68.0762 55.8855C68.3872 56.0865 68.8121 56.1845 69.3561 56.1845C69.6121 56.1845 69.8241 56.1645 69.9921 56.1255C70.1601 56.0865 70.3821 56.0135 70.6641 55.9005L70.8611 54.9305C70.5651 55.0485 70.3131 55.1415 70.1011 55.2005C69.8665 55.2662 69.6237 55.2975 69.3801 55.2935C68.8411 55.2935 68.5701 55.0195 68.5701 54.4755H71.0891C71.1231 54.2755 71.1431 54.0845 71.1431 53.8975C71.1431 53.5016 71.0631 53.1676 70.9111 52.8996M65.2512 54.4955C65.1812 54.6855 65.0632 54.8425 64.9012 54.9655C64.7372 55.0925 64.5202 55.1515 64.2533 55.1515C64.1453 55.1515 64.0413 55.1365 63.9423 55.1115L64.2583 53.0556C64.3533 53.0311 64.4512 53.0196 64.5493 53.0216C64.8362 53.0216 65.0432 53.1046 65.1672 53.2716C65.2902 53.4376 65.3552 53.6536 65.3552 53.9125C65.3552 54.1085 65.3202 54.2995 65.2512 54.4905M66.6042 53.2176C66.5338 53.0033 66.4217 52.8052 66.2742 52.6346C66.1232 52.461 65.9334 52.3253 65.7202 52.2386C65.3867 52.1046 65.0231 52.0638 64.6682 52.1206C64.5763 52.1292 64.4853 52.146 64.3963 52.1706L64.5003 51.4696H63.2113L62.9893 52.9236C62.7937 53.0933 62.6118 53.2782 62.4453 53.4766C62.3225 53.6315 62.2166 53.7992 62.1293 53.9765C62.0363 54.1625 61.9863 54.3145 61.9863 54.4365C61.9863 54.5395 62.0263 54.5885 62.1103 54.5885C62.1443 54.5885 62.1743 54.5785 62.1993 54.5585C62.2233 54.5385 62.2633 54.5005 62.3123 54.4465L62.8563 53.8046L62.2283 57.9124H63.5283L63.8183 56.0575C63.9473 56.0965 64.0653 56.1305 64.1743 56.1555C64.2833 56.1795 64.4063 56.1895 64.5343 56.1895C64.9692 56.1895 65.3502 56.0865 65.6852 55.8855C66.0212 55.6855 66.2782 55.4105 66.4552 55.0635C66.6342 54.7205 66.7232 54.3435 66.7232 53.9375C66.7232 53.6826 66.6882 53.4426 66.6142 53.2276M60.4114 52.1746L59.8434 56.1205H61.1663L61.7343 52.1746H60.4114ZM61.7253 50.9746C61.6719 50.8828 61.5949 50.8068 61.5023 50.7546C61.3892 50.6875 61.2568 50.6602 61.1263 50.677C60.9958 50.6939 60.8747 50.7539 60.7823 50.8476C60.7253 50.9018 60.68 50.9671 60.6492 51.0396C60.6184 51.112 60.6028 51.1899 60.6034 51.2686C60.6034 51.4306 60.6634 51.5676 60.7813 51.6846C60.8365 51.7413 60.9026 51.7862 60.9757 51.8167C61.0487 51.8471 61.1272 51.8624 61.2063 51.8616C61.2855 51.8628 61.3641 51.8478 61.4372 51.8173C61.5104 51.7869 61.5764 51.7417 61.6313 51.6846C61.7259 51.5938 61.7867 51.4736 61.8038 51.3436C61.8209 51.2137 61.7932 51.0818 61.7253 50.9696M58.1544 50.7396L57.3544 56.1155H58.6774L59.4774 50.7396H58.1544ZM55.4925 52.1646L55.1415 54.5585C54.9195 54.7695 54.7415 54.9165 54.6075 55.0045C54.491 55.0887 54.3513 55.1348 54.2075 55.1365C53.9905 55.1365 53.8775 55.0145 53.8775 54.7645C53.8775 54.7055 53.8775 54.6615 53.8875 54.6275L54.2475 52.1646H52.9535L52.5976 54.5495C52.5736 54.7545 52.5576 54.9015 52.5576 54.9845C52.5576 55.1615 52.5926 55.3425 52.6576 55.5235C52.7225 55.71 52.8428 55.8723 53.0025 55.9885C53.1655 56.1155 53.3885 56.1795 53.6695 56.1795C53.9354 56.1788 54.1975 56.1169 54.4355 55.9985C54.5295 55.9485 54.6275 55.8905 54.7355 55.8175C54.8455 55.7435 54.9245 55.6845 54.9785 55.6505L54.9145 56.1105H56.2135L56.8054 52.1646H55.4925ZM47.7427 50.7396L47.5757 51.8316H49.3186L48.6817 56.1115H50.0596L50.7066 51.8316H52.4596L52.6176 50.7396H47.7377H47.7427Z" fill="white"/>
</g>
</svg>
